<svg width="24" height="24" viewBox="0 0 24 24" fill="none" xmlns="http://www.w3.org/2000/svg">
<path d="M19 3H5C4.20435 3 3.44129 3.31607 2.87868 3.87868C2.31607 4.44129 2 5.20435 2 6V21C2.00031 21.1772 2.04769 21.3511 2.1373 21.504C2.22691 21.6569 2.35553 21.7832 2.51 21.87C2.65946 21.9547 2.82821 21.9995 3 22C3.17948 21.9999 3.35564 21.9516 3.51 21.86L8 19.14C8.16597 19.0412 8.35699 18.9926 8.55 19H19C19.7956 19 20.5587 18.6839 21.1213 18.1213C21.6839 17.5587 22 16.7956 22 16V6C22 5.20435 21.6839 4.44129 21.1213 3.87868C20.5587 3.31607 19.7956 3 19 3ZM20 16C20 16.2652 19.8946 16.5196 19.7071 16.7071C19.5196 16.8946 19.2652 17 19 17H8.55C8.00382 16.9996 7.46789 17.1482 7 17.43L4 19.23V6C4 5.73478 4.10536 5.48043 4.29289 5.29289C4.48043 5.10536 4.73478 5 5 5H19C19.2652 5 19.5196 5.10536 19.7071 5.29289C19.8946 5.48043 20 5.73478 20 6V16Z" fill="#9296A6"/>
<path d="M12.6087 14.3331C12.6087 14.5162 12.5432 14.6731 12.4123 14.8039C12.2852 14.9346 12.1281 15 11.9411 15C11.7616 15 11.6064 14.9346 11.4755 14.8039C11.3446 14.6694 11.2791 14.5125 11.2791 14.3331C11.2791 14.1501 11.3427 13.9932 11.4698 13.8624C11.6007 13.7316 11.7578 13.6663 11.9411 13.6663C12.1281 13.6663 12.2852 13.7316 12.4123 13.8624C12.5432 13.9932 12.6087 14.1501 12.6087 14.3331ZM14 7.88294C14 8.33126 13.8803 8.70859 13.641 9.01494C13.4016 9.31756 12.9696 9.62578 12.345 9.9396C11.8476 10.1862 11.5147 10.3973 11.3464 10.5729C11.1781 10.7484 11.094 10.9539 11.094 11.1893C11.094 11.4022 11.1763 11.5909 11.3408 11.7553C11.5091 11.9197 11.7092 12.0019 11.9411 12.0019C12.2179 12.0019 12.4367 11.9159 12.5975 11.7441C12.7583 11.5685 12.8443 11.3294 12.8555 11.0268H13.7363C13.7363 11.5834 13.5774 12.0243 13.2595 12.3493C12.9416 12.6706 12.5021 12.8313 11.9411 12.8313C11.4175 12.8313 10.9892 12.6781 10.6564 12.3717C10.3273 12.0654 10.1627 11.675 10.1627 11.2005C10.1627 10.7671 10.2842 10.4047 10.5273 10.1133C10.7705 9.81818 11.223 9.50996 11.885 9.18867C12.3001 8.9944 12.6012 8.79078 12.7882 8.57783C12.9752 8.36115 13.0687 8.11831 13.0687 7.84932C13.0687 7.56164 12.9659 7.32254 12.7602 7.132C12.5582 6.93773 12.3058 6.8406 12.0028 6.8406C11.6625 6.8406 11.395 6.95268 11.2006 7.17684C11.0061 7.401 10.9051 7.71295 10.8976 8.1127H10C10 7.44396 10.1758 6.92466 10.5273 6.55479C10.8827 6.18493 11.3782 6 12.014 6C12.6237 6 13.1061 6.16999 13.4614 6.50996C13.8205 6.8462 14 7.30386 14 7.88294Z" fill="#9296A6"/>
</svg>
