<svg width="24" height="24" viewBox="0 0 24 24" fill="none" xmlns="http://www.w3.org/2000/svg">
<path d="M4.33167 6.39881C3.87502 7.31212 3.74775 8.23291 4.24184 9.16119C4.67603 9.97717 5.37972 10.4862 6.18822 10.8755C6.21817 10.8456 6.2556 10.8081 6.28554 10.7782C6.24063 10.7707 6.19571 10.7632 6.15828 10.7482C6.11336 10.7258 6.07593 10.6958 6.03102 10.6734C4.13703 9.43817 3.74775 7.12497 5.33481 5.49299C8.26936 2.46112 11.8328 1.29329 15.9726 2.42369C17.9639 2.97018 19.521 4.18293 20.4118 6.10686C21.0182 7.42441 20.9284 8.80934 20.599 10.1793C20.0151 12.6123 18.7724 14.7009 17.1479 16.5724C15.6432 18.3092 13.9438 19.8214 11.8926 20.9069C10.4927 21.6405 9.01049 22.0897 7.40097 21.9849C5.96364 21.8876 4.97547 21.1015 4.24932 19.9187C4.0996 19.6792 3.97982 19.4172 3.87502 19.1402C4.77335 20.2032 5.94867 20.2481 7.18388 20.0759C7.52824 20.031 7.8726 19.9562 8.20947 19.8514C12.3044 18.5712 15.5533 16.2056 17.7093 12.4476C18.3157 11.392 18.69 10.2392 18.8023 9.01147C19.0419 6.42127 17.4997 4.21287 14.9245 3.79365C11.6531 3.25465 8.86825 4.28773 6.66734 6.78809C6.32297 7.17737 6.11336 7.67894 5.88878 8.15805C6.62242 7.14743 7.55818 6.36887 8.62121 5.7625C10.5077 4.67701 12.5364 4.22036 14.7074 4.5722C17.4997 5.02137 18.9296 7.19983 18.2933 9.94723C17.8366 11.9385 16.7736 13.593 15.4036 15.0677C13.4797 17.1489 11.1665 18.6236 8.38165 19.26C7.85763 19.3797 7.29617 19.4022 6.74968 19.3947C5.6642 19.3722 4.81078 18.8782 4.20441 17.9798C3.96485 17.6205 3.74775 17.2462 3.53814 16.8644C4.80329 17.8301 6.22565 17.7852 7.61058 17.3959C10.7248 16.535 13.3449 14.8656 15.3437 12.2979C15.9052 11.5792 16.3319 10.7707 16.549 9.86488C17.0655 7.70888 15.7854 6.01702 13.5695 5.91222C11.683 5.82238 10.1334 6.60843 8.74099 7.79123C8.0897 8.3452 7.55818 8.99649 7.19885 9.79751C7.24377 9.76008 7.29617 9.72265 7.3336 9.68522C7.37852 9.6403 7.40846 9.5879 7.45338 9.54298C9.19015 7.61156 11.3012 6.50362 13.9513 6.66831C15.6432 6.77312 16.549 7.97838 16.2795 9.64778C16.1148 10.6584 15.6357 11.5343 14.9994 12.3128C13.1353 14.5961 10.8072 16.1757 7.89506 16.797C7.30365 16.9243 6.68231 16.9318 6.07593 16.9243C5.09525 16.9093 4.29424 16.4901 3.71781 15.6816C3.41088 15.2549 3.14138 14.8057 2.8045 14.2892C3.17132 14.4838 3.44082 14.671 3.73278 14.7833C4.5862 15.1052 5.46956 15.0752 6.3604 14.9629C8.25439 14.7159 9.96871 14.0047 11.5183 12.9042C11.5707 12.8668 11.6157 12.8294 11.6306 12.7321C11.5558 12.7695 11.4734 12.792 11.3986 12.8369C9.88636 13.7127 8.26188 14.2368 6.5251 14.4239C4.68352 14.626 3.16384 13.8175 2.40025 12.223C3.49323 13.0764 4.72095 13.0315 5.94867 12.8668C7.90254 12.5973 9.64681 11.7963 11.2413 10.6434C11.1141 10.7108 10.9868 10.7707 10.8596 10.8381C9.12278 11.7214 7.30365 12.3802 5.33481 12.4476C4.67603 12.47 3.97982 12.3952 3.3435 12.2155C2.23556 11.9011 1.80885 11.1076 2.07835 9.99215C2.18316 9.55795 2.34036 9.12376 2.57243 8.74945C3.08149 7.92598 3.65043 7.13994 4.19692 6.33893C4.23435 6.3539 4.28675 6.37636 4.33167 6.39881ZM8.15707 11.3771C8.17953 11.4145 8.20199 11.4445 8.22445 11.4819C8.32177 11.4295 8.42657 11.392 8.50892 11.3247C8.7859 11.0776 9.04792 10.8081 9.33239 10.5611C10.3505 9.6927 11.451 8.98152 12.8134 8.78688C13.4497 8.69705 14.0337 8.74197 14.3855 9.43817C14.5652 8.54733 14.1984 8.04576 13.3524 8.00833C13.1204 8.00084 12.8808 8.0233 12.6487 8.06822C11.7953 8.24788 11.0243 8.63716 10.3206 9.14622C9.47463 9.76008 8.74847 10.5087 8.15707 11.3771Z" fill="black"/>
<path d="M12.7087 20.7797C14.6027 19.5744 16.2122 18.1446 17.5822 16.4602C19.027 14.6935 20.1948 12.777 20.7338 10.5312C20.8836 9.90235 20.9435 9.25855 21.0558 8.56982C21.2204 9.52805 21.183 10.4488 20.9659 11.3472C20.0676 15.1277 17.949 18.0023 14.5204 19.8813C13.9664 20.1883 13.3975 20.4802 12.836 20.7722C12.8285 20.7872 12.7986 20.7797 12.7087 20.7797Z" fill="black"/>
</svg>
