<svg width="24" height="24" viewBox="0 0 24 24" fill="none" xmlns="http://www.w3.org/2000/svg">
<path d="M6 5H18V6.4H6V5ZM6 7.8H18V9.2H6V7.8ZM6 17.6H12V19H6V17.6ZM6 10.6H12V12H6V10.6Z" fill="#0F1B38"/>
<path d="M19.2 22H4.8C4.32276 21.9996 3.8652 21.849 3.52773 21.5812C3.19027 21.3133 3.00048 20.9502 3 20.5714V3.42857C3.00048 3.04981 3.19027 2.68666 3.52773 2.41884C3.8652 2.15101 4.32276 2.00038 4.8 2H19.2C19.6772 2.00038 20.1348 2.15101 20.4723 2.41884C20.8097 2.68666 20.9995 3.04981 21 3.42857V20.5714C20.9995 20.9502 20.8097 21.3133 20.4723 21.5812C20.1348 21.849 19.6772 21.9996 19.2 22V22ZM4.8 3.42857V20.5714H19.2V3.42857H4.8Z" fill="#0F1B38"/>
</svg>
