<svg width="20" height="20" viewBox="-1 -1 22 22" fill="none" xmlns="http://www.w3.org/2000/svg">
<path d="M9.5625 13.4844C9.5625 13.6758 9.49414 13.8398 9.35742 13.9766C9.22461 14.1133 9.06055 14.1816 8.86523 14.1816C8.67773 14.1816 8.51562 14.1133 8.37891 13.9766C8.24219 13.8359 8.17383 13.6719 8.17383 13.4844C8.17383 13.293 8.24023 13.1289 8.37305 12.9922C8.50977 12.8555 8.67383 12.7871 8.86523 12.7871C9.06055 12.7871 9.22461 12.8555 9.35742 12.9922C9.49414 13.1289 9.5625 13.293 9.5625 13.4844ZM11.0156 6.74023C11.0156 7.20898 10.8906 7.60352 10.6406 7.92383C10.3906 8.24023 9.93945 8.5625 9.28711 8.89062C8.76758 9.14844 8.41992 9.36914 8.24414 9.55273C8.06836 9.73633 7.98047 9.95117 7.98047 10.1973C7.98047 10.4199 8.06641 10.6172 8.23828 10.7891C8.41406 10.9609 8.62305 11.0469 8.86523 11.0469C9.1543 11.0469 9.38281 10.957 9.55078 10.7773C9.71875 10.5938 9.80859 10.3438 9.82031 10.0273H10.7402C10.7402 10.6094 10.5742 11.0703 10.2422 11.4102C9.91016 11.7461 9.45117 11.9141 8.86523 11.9141C8.31836 11.9141 7.87109 11.7539 7.52344 11.4336C7.17969 11.1133 7.00781 10.7051 7.00781 10.209C7.00781 9.75586 7.13477 9.37695 7.38867 9.07227C7.64258 8.76367 8.11523 8.44141 8.80664 8.10547C9.24023 7.90234 9.55469 7.68945 9.75 7.4668C9.94531 7.24023 10.043 6.98633 10.043 6.70508C10.043 6.4043 9.93555 6.1543 9.7207 5.95508C9.50977 5.75195 9.24609 5.65039 8.92969 5.65039C8.57422 5.65039 8.29492 5.76758 8.0918 6.00195C7.88867 6.23633 7.7832 6.5625 7.77539 6.98047H6.83789C6.83789 6.28125 7.02148 5.73828 7.38867 5.35156C7.75977 4.96484 8.27734 4.77148 8.94141 4.77148C9.57812 4.77148 10.082 4.94922 10.4531 5.30469C10.8281 5.65625 11.0156 6.13477 11.0156 6.74023Z" fill="#9296A6"/>
<path d="M9 17C4.58172 17 1 13.4183 1 9H-1C-1 14.5228 3.47715 19 9 19V17ZM17 9C17 13.4183 13.4183 17 9 17V19C14.5228 19 19 14.5228 19 9H17ZM9 1C13.4183 1 17 4.58172 17 9H19C19 3.47715 14.5228 -1 9 -1V1ZM9 -1C3.47715 -1 -1 3.47715 -1 9H1C1 4.58172 4.58172 1 9 1V-1Z" fill="#9296A6"/>
</svg>
